inDegrees=yes
name=ik_S54_A07_T01
DataType=double
version=3
OpenSimVersion=4.3-2021-08-27-4bc7ad9
endheader
time	pelvis_tilt	pelvis_list	pelvis_rotation	pelvis_tx	pelvis_ty	pelvis_tz	hip_flexion_r	hip_adduction_r	hip_rotation_r	knee_angle_r	knee_angle_r_beta	ankle_angle_r	subtalar_angle_r	mtp_angle_r	hip_flexion_l	hip_adduction_l	hip_rotation_l	knee_angle_l	knee_angle_l_beta	ankle_angle_l	subtalar_angle_l	mtp_angle_l	lumbar_extension	lumbar_bending	lumbar_rotation	arm_flex_r	arm_add_r	arm_rot_r	elbow_flex_r	pro_sup_r	wrist_flex_r	wrist_dev_r	arm_flex_l	arm_add_l	arm_rot_l	elbow_flex_l	pro_sup_l	wrist_flex_l	wrist_dev_l
0	0	0	0	0	0.9399999999999999	0	0	0	0	0	0	0	0	0	0	0	0	0	0	0	0	0	0	0	0	0	0	0	0	89.99999999963507	0	0	0	0	0	0	89.99999999869995	0	0
0.02	-5.181364283697208	0.316779032216401	14.5407654781627	0	0.9399999999999999	0	3.903077598136528	-1.805063848146385	-1.310183998486385	5.948776501548595	0.1038257364172925	0	0	0	3.903077598136528	-1.805063848146385	-1.310183998486385	5.948776501548595	0.1038257364172925	0	0	0	-3.259606789923598	-1.948854502762277	-0.2326964709649112	28.34515582600513	0.4848805743970738	-0.0003993054924189112	45.96105084651404	120.9475401511584	0	0	27.22288921654271	-13.20313363369022	-4.993425553988141	37.96658627915249	125.3442486784113	0	0
0.04	-4.296952312667065	-1.33101292071151	16.53158792974185	0	0.9399999999999999	0	41.26632904960075	-13.77765776116285	-12.74351747959151	41.34919506759419	0.7216795969789178	0	0	0	41.26632904960075	-13.77765776116285	-12.74351747959151	41.34919506759419	0.7216795969789178	0	0	0	-3.693054338726062	-0.003474469033887012	-2.072394481637786	28.35715180354623	0.4687677209871282	-0.04015796262659294	45.97756284330075	120.9119962376421	0	0	27.22657067352402	-13.17957866658216	-4.967324258884946	37.98120608543488	125.2642257471696	0	0
0.06	-4.286226724507195	-1.323329368043539	16.53461476799615	0	0.9399999999999999	0	41.26829408523368	-13.76871269744749	-12.73978042874062	41.35397222867182	0.7217629741686207	0	0	0	41.26829408523368	-13.76871269744749	-12.73978042874062	41.35397222867182	0.7217629741686207	0	0	0	-3.681124547099202	0.001631993914695291	-2.083022197644265	28.34253931257144	0.4743241987569587	-0.02443327401927158	45.94823420748975	120.9245801151586	0	2.055716489759407e-35	27.18730804758663	-13.18990141636858	-5.013065384751313	37.93571571594332	125.2196678638397	0	2.055716489759407e-35
0.08	-4.260722254003785	-1.309292026045037	16.54906889946408	0	0.9399999999999999	0	41.27070060255875	-13.75708998703891	-12.73501970640184	41.35976336801313	0.7218640486175684	0	0	0	41.27070060255875	-13.75708998703891	-12.73501970640184	41.35976336801313	0.7218640486175684	0	0	0	-3.653031442154519	0.007832555469437693	-2.082359739657157	28.30676238308445	0.4771981851797674	-0.01454150843767046	45.91481765983889	120.9404213386501	0	0	27.13699374011814	-13.17785660892248	-5.004384883358525	37.90899943238365	125.157596881811	0	0
0.1	-4.246336187971548	-1.304653870374781	16.56278764797331	0	0.9399999999999999	0	41.27056632979588	-13.75335623609354	-12.73416440719447	41.35899835729174	0.7218506966616669	0	0	0	41.27056632979588	-13.75335623609354	-12.73416440719447	41.35899835729174	0.7218506966616669	0	0	0	-3.638050894980151	0.008786279939483254	-2.091156147836166	28.3100222727471	0.4802705400226148	-0.04606298560860989	45.88111464259483	120.9534310989496	0	0	27.15184548515774	-13.22437763383809	-5.088554306665363	37.86652064212401	125.1472583469631	0	0
0.12	-4.231494136419899	-1.29380462549476	16.56887941784295	0	0.9399999999999999	0	41.26850655340961	-13.75570154203314	-12.73626865641488	41.35327425398044	0.7217507922121604	0	0	0	41.26850655340961	-13.75570154203314	-12.73626865641488	41.35327425398044	0.7217507922121604	0	0	0	-3.620328109208565	0.01479780253262304	-2.089468796069118	28.30692045058067	0.4899893724434253	-0.0952101118410224	45.84623873534607	120.9660968506625	0	0	27.15703207834966	-13.22722078909003	-5.127046387685863	37.83087875104773	125.1563599512955	0	0
0.14	-4.218547870923144	-1.279018147812847	16.57131850016658	0	0.9399999999999999	0	41.26928672785022	-13.74822373006211	-12.7337683503058	41.3548144114388	0.7217776730308079	0	0	0	41.26928672785022	-13.74822373006211	-12.7337683503058	41.3548144114388	0.7217776730308079	0	0	0	-3.603711297661552	0.02502259899683588	-2.085360598927874	28.29468342816187	0.4740758894855104	-0.1131568412008472	45.83230756982469	120.9660637833003	0	0	27.18016561540422	-13.25583287662034	-5.1169641720732	37.82057120444983	125.1495747645121	0	0
0.16	-4.204482159583574	-1.270318015091964	16.56422232685966	0	0.9399999999999999	0	41.26673360255535	-13.75476785417677	-12.73735080503624	41.34808520820017	0.7216602262782581	0	0	0	41.26673360255535	-13.75476785417677	-12.73735080503624	41.34808520820017	0.7216602262782581	0	0	0	-3.587154529316437	0.02871784123906767	-2.076809013757627	28.2952179207628	0.5066584929023782	-0.1708017540253151	45.79280709228965	120.9978776723067	0	-5.337893210998876e-35	27.14722667546829	-13.22885134486418	-5.119803387009845	37.75656662310691	125.1731459685391	0	-5.337893210998876e-35
0.18	-4.194901326286036	-1.259221139233621	16.55339239156177	0	0.9399999999999999	0	41.27026591849825	-13.74184538115729	-12.73143757556975	41.35699761101571	0.7218157770516532	0	0	0	41.27026591849825	-13.74184538115729	-12.73143757556975	41.35699761101571	0.7218157770516532	0	0	0	-3.575077657914526	0.03571776565841926	-2.062715141946143	28.26105912662514	0.4856181559725855	-0.1652553890334004	45.77514042722783	120.9979592166355	0	0	27.15648863699823	-13.23071224315474	-5.018669929202989	37.71993864164134	125.1396630601728	0	0
0.2	-4.193785234918976	-1.249990392548652	16.54573361788094	0	0.9399999999999999	0	41.27492372291596	-13.72575716695902	-12.72388137944304	41.36885403381982	0.7220227106670936	0	0	0	41.27492372291596	-13.72575716695902	-12.72388137944304	41.36885403381982	0.7220227106670936	0	0	0	-3.571873918551811	0.04346489532912726	-2.049744083384732	28.28014821816715	0.4922320926458992	-0.2130637579866121	45.77885627699568	120.9981541237867	0	0	27.12538787995942	-13.19515162775107	-4.978556908679443	37.69884076413733	125.0743070932189	0	0
